<mxfile host="app.diagrams.net" modified="2024-06-09T17:09:01.271Z" agent="Mozilla/5.0 (Windows NT 10.0; Win64; x64) AppleWebKit/537.36 (KHTML, like Gecko) Chrome/125.0.0.0 Safari/537.36 Edg/125.0.0.0" etag="X1VrqCiT5w95BfBaWaiS" version="24.5.2" type="github">
  <diagram name="Page-1" id="kFZvE04FoF2c-dVVkSzx">
    <mxGraphModel dx="664" dy="741" grid="1" gridSize="10" guides="1" tooltips="1" connect="1" arrows="1" fold="1" page="1" pageScale="1" pageWidth="850" pageHeight="1100" math="0" shadow="0">
      <root>
        <mxCell id="0" />
        <mxCell id="1" parent="0" />
        <mxCell id="bI5IiFM-uWExRWGYlGxG-1" value="accounts" style="rounded=0;whiteSpace=wrap;html=1;" parent="1" vertex="1">
          <mxGeometry x="170" y="400" width="110" height="40" as="geometry" />
        </mxCell>
        <mxCell id="bI5IiFM-uWExRWGYlGxG-2" value="id" style="ellipse;whiteSpace=wrap;html=1;align=center;fontStyle=4;" parent="1" vertex="1">
          <mxGeometry x="290" y="290" width="80" height="40" as="geometry" />
        </mxCell>
        <mxCell id="bI5IiFM-uWExRWGYlGxG-3" value="" style="endArrow=none;html=1;rounded=0;exitX=0;exitY=1;exitDx=0;exitDy=0;entryX=0.5;entryY=0;entryDx=0;entryDy=0;" parent="1" source="bI5IiFM-uWExRWGYlGxG-2" target="bI5IiFM-uWExRWGYlGxG-1" edge="1">
          <mxGeometry relative="1" as="geometry">
            <mxPoint x="180" y="530" as="sourcePoint" />
            <mxPoint x="340" y="530" as="targetPoint" />
          </mxGeometry>
        </mxCell>
        <mxCell id="bI5IiFM-uWExRWGYlGxG-4" value="username" style="ellipse;whiteSpace=wrap;html=1;align=center;" parent="1" vertex="1">
          <mxGeometry x="180" y="280" width="100" height="40" as="geometry" />
        </mxCell>
        <mxCell id="bI5IiFM-uWExRWGYlGxG-5" value="" style="endArrow=none;html=1;rounded=0;exitX=0.5;exitY=1;exitDx=0;exitDy=0;entryX=0.5;entryY=0;entryDx=0;entryDy=0;" parent="1" source="bI5IiFM-uWExRWGYlGxG-4" target="bI5IiFM-uWExRWGYlGxG-1" edge="1">
          <mxGeometry relative="1" as="geometry">
            <mxPoint x="160" y="540" as="sourcePoint" />
            <mxPoint x="320" y="540" as="targetPoint" />
          </mxGeometry>
        </mxCell>
        <mxCell id="bI5IiFM-uWExRWGYlGxG-6" value="password" style="ellipse;whiteSpace=wrap;html=1;align=center;" parent="1" vertex="1">
          <mxGeometry x="70" y="290" width="100" height="40" as="geometry" />
        </mxCell>
        <mxCell id="bI5IiFM-uWExRWGYlGxG-7" value="" style="endArrow=none;html=1;rounded=0;exitX=1;exitY=1;exitDx=0;exitDy=0;entryX=0.5;entryY=0;entryDx=0;entryDy=0;" parent="1" source="bI5IiFM-uWExRWGYlGxG-6" target="bI5IiFM-uWExRWGYlGxG-1" edge="1">
          <mxGeometry relative="1" as="geometry">
            <mxPoint x="130" y="520" as="sourcePoint" />
            <mxPoint x="290" y="520" as="targetPoint" />
          </mxGeometry>
        </mxCell>
        <mxCell id="bI5IiFM-uWExRWGYlGxG-8" value="full_name" style="ellipse;whiteSpace=wrap;html=1;align=center;" parent="1" vertex="1">
          <mxGeometry x="20" y="340" width="100" height="40" as="geometry" />
        </mxCell>
        <mxCell id="bI5IiFM-uWExRWGYlGxG-9" value="" style="endArrow=none;html=1;rounded=0;exitX=1;exitY=1;exitDx=0;exitDy=0;entryX=0;entryY=0.5;entryDx=0;entryDy=0;" parent="1" source="bI5IiFM-uWExRWGYlGxG-8" target="bI5IiFM-uWExRWGYlGxG-1" edge="1">
          <mxGeometry relative="1" as="geometry">
            <mxPoint x="170" y="570" as="sourcePoint" />
            <mxPoint x="330" y="570" as="targetPoint" />
          </mxGeometry>
        </mxCell>
        <mxCell id="bI5IiFM-uWExRWGYlGxG-10" value="email" style="ellipse;whiteSpace=wrap;html=1;align=center;" parent="1" vertex="1">
          <mxGeometry x="10" y="400" width="100" height="40" as="geometry" />
        </mxCell>
        <mxCell id="bI5IiFM-uWExRWGYlGxG-11" value="" style="endArrow=none;html=1;rounded=0;exitX=1;exitY=0.5;exitDx=0;exitDy=0;entryX=0;entryY=0.5;entryDx=0;entryDy=0;" parent="1" source="bI5IiFM-uWExRWGYlGxG-10" target="bI5IiFM-uWExRWGYlGxG-1" edge="1">
          <mxGeometry relative="1" as="geometry">
            <mxPoint x="120" y="430" as="sourcePoint" />
            <mxPoint x="310" y="550" as="targetPoint" />
          </mxGeometry>
        </mxCell>
        <mxCell id="bI5IiFM-uWExRWGYlGxG-12" value="credit" style="ellipse;whiteSpace=wrap;html=1;align=center;" parent="1" vertex="1">
          <mxGeometry x="20" y="460" width="100" height="40" as="geometry" />
        </mxCell>
        <mxCell id="bI5IiFM-uWExRWGYlGxG-13" value="" style="endArrow=none;html=1;rounded=0;entryX=0;entryY=0.5;entryDx=0;entryDy=0;exitX=1;exitY=0;exitDx=0;exitDy=0;" parent="1" source="bI5IiFM-uWExRWGYlGxG-12" target="bI5IiFM-uWExRWGYlGxG-1" edge="1">
          <mxGeometry relative="1" as="geometry">
            <mxPoint x="90" y="470" as="sourcePoint" />
            <mxPoint x="300" y="560" as="targetPoint" />
          </mxGeometry>
        </mxCell>
        <mxCell id="bI5IiFM-uWExRWGYlGxG-14" value="merches" style="whiteSpace=wrap;html=1;align=center;" parent="1" vertex="1">
          <mxGeometry x="170" y="680" width="110" height="40" as="geometry" />
        </mxCell>
        <mxCell id="bI5IiFM-uWExRWGYlGxG-15" value="id" style="ellipse;whiteSpace=wrap;html=1;align=center;fontStyle=4;" parent="1" vertex="1">
          <mxGeometry x="290" y="770" width="90" height="40" as="geometry" />
        </mxCell>
        <mxCell id="bI5IiFM-uWExRWGYlGxG-16" value="" style="endArrow=none;html=1;rounded=0;exitX=0.5;exitY=1;exitDx=0;exitDy=0;entryX=0;entryY=0;entryDx=0;entryDy=0;" parent="1" source="bI5IiFM-uWExRWGYlGxG-14" target="bI5IiFM-uWExRWGYlGxG-15" edge="1">
          <mxGeometry relative="1" as="geometry">
            <mxPoint x="180" y="880" as="sourcePoint" />
            <mxPoint x="340" y="880" as="targetPoint" />
          </mxGeometry>
        </mxCell>
        <mxCell id="bI5IiFM-uWExRWGYlGxG-17" value="name" style="ellipse;whiteSpace=wrap;html=1;align=center;" parent="1" vertex="1">
          <mxGeometry x="110" y="830" width="100" height="40" as="geometry" />
        </mxCell>
        <mxCell id="bI5IiFM-uWExRWGYlGxG-18" value="" style="endArrow=none;html=1;rounded=0;exitX=0.5;exitY=1;exitDx=0;exitDy=0;entryX=0.5;entryY=0;entryDx=0;entryDy=0;" parent="1" source="bI5IiFM-uWExRWGYlGxG-14" target="bI5IiFM-uWExRWGYlGxG-17" edge="1">
          <mxGeometry relative="1" as="geometry">
            <mxPoint x="230" y="930" as="sourcePoint" />
            <mxPoint x="390" y="930" as="targetPoint" />
          </mxGeometry>
        </mxCell>
        <mxCell id="bI5IiFM-uWExRWGYlGxG-19" value="description" style="ellipse;whiteSpace=wrap;html=1;align=center;" parent="1" vertex="1">
          <mxGeometry x="40" y="790" width="100" height="40" as="geometry" />
        </mxCell>
        <mxCell id="bI5IiFM-uWExRWGYlGxG-21" value="stock" style="ellipse;whiteSpace=wrap;html=1;align=center;" parent="1" vertex="1">
          <mxGeometry x="20" y="740" width="100" height="40" as="geometry" />
        </mxCell>
        <mxCell id="bI5IiFM-uWExRWGYlGxG-22" value="price" style="ellipse;whiteSpace=wrap;html=1;align=center;" parent="1" vertex="1">
          <mxGeometry x="20" y="680" width="100" height="40" as="geometry" />
        </mxCell>
        <mxCell id="bI5IiFM-uWExRWGYlGxG-23" value="" style="endArrow=none;html=1;rounded=0;exitX=1;exitY=0;exitDx=0;exitDy=0;entryX=0.5;entryY=1;entryDx=0;entryDy=0;" parent="1" source="bI5IiFM-uWExRWGYlGxG-19" target="bI5IiFM-uWExRWGYlGxG-14" edge="1">
          <mxGeometry relative="1" as="geometry">
            <mxPoint x="430" y="730" as="sourcePoint" />
            <mxPoint x="590" y="730" as="targetPoint" />
          </mxGeometry>
        </mxCell>
        <mxCell id="bI5IiFM-uWExRWGYlGxG-24" value="" style="endArrow=none;html=1;rounded=0;exitX=1;exitY=0;exitDx=0;exitDy=0;entryX=0;entryY=0.5;entryDx=0;entryDy=0;" parent="1" source="bI5IiFM-uWExRWGYlGxG-21" target="bI5IiFM-uWExRWGYlGxG-14" edge="1">
          <mxGeometry relative="1" as="geometry">
            <mxPoint x="440" y="690" as="sourcePoint" />
            <mxPoint x="600" y="690" as="targetPoint" />
          </mxGeometry>
        </mxCell>
        <mxCell id="bI5IiFM-uWExRWGYlGxG-25" value="" style="endArrow=none;html=1;rounded=0;exitX=1;exitY=0.5;exitDx=0;exitDy=0;entryX=0;entryY=0.5;entryDx=0;entryDy=0;" parent="1" source="bI5IiFM-uWExRWGYlGxG-22" target="bI5IiFM-uWExRWGYlGxG-14" edge="1">
          <mxGeometry relative="1" as="geometry">
            <mxPoint x="420" y="690" as="sourcePoint" />
            <mxPoint x="580" y="690" as="targetPoint" />
          </mxGeometry>
        </mxCell>
        <mxCell id="bI5IiFM-uWExRWGYlGxG-26" value="category" style="ellipse;whiteSpace=wrap;html=1;align=center;" parent="1" vertex="1">
          <mxGeometry x="50" y="620" width="100" height="40" as="geometry" />
        </mxCell>
        <mxCell id="bI5IiFM-uWExRWGYlGxG-27" value="" style="endArrow=none;html=1;rounded=0;exitX=1;exitY=1;exitDx=0;exitDy=0;entryX=0;entryY=0.5;entryDx=0;entryDy=0;" parent="1" source="bI5IiFM-uWExRWGYlGxG-26" target="bI5IiFM-uWExRWGYlGxG-14" edge="1">
          <mxGeometry relative="1" as="geometry">
            <mxPoint x="390" y="650" as="sourcePoint" />
            <mxPoint x="550" y="650" as="targetPoint" />
          </mxGeometry>
        </mxCell>
        <mxCell id="bI5IiFM-uWExRWGYlGxG-29" value="" style="endArrow=none;html=1;rounded=0;exitX=0.5;exitY=1;exitDx=0;exitDy=0;entryX=0.5;entryY=0;entryDx=0;entryDy=0;" parent="1" source="bI5IiFM-uWExRWGYlGxG-1" target="bI5IiFM-uWExRWGYlGxG-14" edge="1">
          <mxGeometry relative="1" as="geometry">
            <mxPoint x="420" y="600" as="sourcePoint" />
            <mxPoint x="580" y="600" as="targetPoint" />
          </mxGeometry>
        </mxCell>
        <mxCell id="bI5IiFM-uWExRWGYlGxG-30" value="M" style="resizable=0;html=1;whiteSpace=wrap;align=left;verticalAlign=bottom;" parent="bI5IiFM-uWExRWGYlGxG-29" connectable="0" vertex="1">
          <mxGeometry x="-1" relative="1" as="geometry" />
        </mxCell>
        <mxCell id="bI5IiFM-uWExRWGYlGxG-31" value="N" style="resizable=0;html=1;whiteSpace=wrap;align=right;verticalAlign=bottom;" parent="bI5IiFM-uWExRWGYlGxG-29" connectable="0" vertex="1">
          <mxGeometry x="1" relative="1" as="geometry" />
        </mxCell>
        <mxCell id="bI5IiFM-uWExRWGYlGxG-32" value="wishlists" style="shape=associativeEntity;whiteSpace=wrap;html=1;align=center;" parent="1" vertex="1">
          <mxGeometry x="170" y="540" width="110" height="40" as="geometry" />
        </mxCell>
        <mxCell id="bI5IiFM-uWExRWGYlGxG-36" value="account_id" style="ellipse;whiteSpace=wrap;html=1;align=center;fontStyle=4;" parent="1" vertex="1">
          <mxGeometry x="20" y="540" width="100" height="40" as="geometry" />
        </mxCell>
        <mxCell id="bI5IiFM-uWExRWGYlGxG-38" value="" style="endArrow=none;html=1;rounded=0;exitX=1;exitY=0.5;exitDx=0;exitDy=0;entryX=0;entryY=0.5;entryDx=0;entryDy=0;" parent="1" source="bI5IiFM-uWExRWGYlGxG-36" target="bI5IiFM-uWExRWGYlGxG-32" edge="1">
          <mxGeometry relative="1" as="geometry">
            <mxPoint x="140" y="530" as="sourcePoint" />
            <mxPoint x="300" y="530" as="targetPoint" />
          </mxGeometry>
        </mxCell>
        <mxCell id="bI5IiFM-uWExRWGYlGxG-39" value="" style="endArrow=none;html=1;rounded=0;exitX=1;exitY=0.5;exitDx=0;exitDy=0;entryX=0;entryY=0.5;entryDx=0;entryDy=0;" parent="1" source="bI5IiFM-uWExRWGYlGxG-32" target="17qj9s2xw-vzqf6WSjzT-28" edge="1">
          <mxGeometry relative="1" as="geometry">
            <mxPoint x="390" y="450" as="sourcePoint" />
            <mxPoint x="314.9999999999968" y="560" as="targetPoint" />
          </mxGeometry>
        </mxCell>
        <mxCell id="bI5IiFM-uWExRWGYlGxG-40" value="role" style="ellipse;whiteSpace=wrap;html=1;align=center;" parent="1" vertex="1">
          <mxGeometry x="330" y="340" width="100" height="40" as="geometry" />
        </mxCell>
        <mxCell id="bI5IiFM-uWExRWGYlGxG-41" value="" style="endArrow=none;html=1;rounded=0;exitX=0;exitY=0.5;exitDx=0;exitDy=0;entryX=0.5;entryY=0;entryDx=0;entryDy=0;" parent="1" source="bI5IiFM-uWExRWGYlGxG-40" target="bI5IiFM-uWExRWGYlGxG-1" edge="1">
          <mxGeometry relative="1" as="geometry">
            <mxPoint x="330" y="450" as="sourcePoint" />
            <mxPoint x="490" y="450" as="targetPoint" />
          </mxGeometry>
        </mxCell>
        <mxCell id="bI5IiFM-uWExRWGYlGxG-42" value="orders" style="whiteSpace=wrap;html=1;align=center;" parent="1" vertex="1">
          <mxGeometry x="560" y="400" width="110" height="40" as="geometry" />
        </mxCell>
        <mxCell id="bI5IiFM-uWExRWGYlGxG-45" value="id" style="ellipse;whiteSpace=wrap;html=1;align=center;fontStyle=4;" parent="1" vertex="1">
          <mxGeometry x="740" y="450" width="100" height="40" as="geometry" />
        </mxCell>
        <mxCell id="bI5IiFM-uWExRWGYlGxG-46" value="account_id" style="ellipse;whiteSpace=wrap;html=1;align=center;" parent="1" vertex="1">
          <mxGeometry x="730" y="300" width="100" height="40" as="geometry" />
        </mxCell>
        <mxCell id="bI5IiFM-uWExRWGYlGxG-50" value="" style="endArrow=none;html=1;rounded=0;exitX=0;exitY=0.5;exitDx=0;exitDy=0;entryX=1;entryY=0.5;entryDx=0;entryDy=0;" parent="1" source="bI5IiFM-uWExRWGYlGxG-45" target="bI5IiFM-uWExRWGYlGxG-42" edge="1">
          <mxGeometry relative="1" as="geometry">
            <mxPoint x="550" y="540" as="sourcePoint" />
            <mxPoint x="710" y="540" as="targetPoint" />
          </mxGeometry>
        </mxCell>
        <mxCell id="bI5IiFM-uWExRWGYlGxG-51" value="" style="endArrow=none;html=1;rounded=0;exitX=1;exitY=0.5;exitDx=0;exitDy=0;entryX=0;entryY=1;entryDx=0;entryDy=0;" parent="1" source="bI5IiFM-uWExRWGYlGxG-42" target="bI5IiFM-uWExRWGYlGxG-46" edge="1">
          <mxGeometry relative="1" as="geometry">
            <mxPoint x="620" y="540" as="sourcePoint" />
            <mxPoint x="780" y="540" as="targetPoint" />
          </mxGeometry>
        </mxCell>
        <mxCell id="bI5IiFM-uWExRWGYlGxG-52" value="" style="endArrow=none;html=1;rounded=0;exitX=0;exitY=1;exitDx=0;exitDy=0;entryX=1;entryY=0.5;entryDx=0;entryDy=0;" parent="1" source="17qj9s2xw-vzqf6WSjzT-16" target="bI5IiFM-uWExRWGYlGxG-42" edge="1">
          <mxGeometry relative="1" as="geometry">
            <mxPoint x="730.0000000000032" y="380" as="sourcePoint" />
            <mxPoint x="680" y="520" as="targetPoint" />
          </mxGeometry>
        </mxCell>
        <mxCell id="bI5IiFM-uWExRWGYlGxG-56" value="ordered_date" style="ellipse;whiteSpace=wrap;html=1;align=center;" parent="1" vertex="1">
          <mxGeometry x="740" y="400" width="100" height="40" as="geometry" />
        </mxCell>
        <mxCell id="bI5IiFM-uWExRWGYlGxG-57" value="" style="endArrow=none;html=1;rounded=0;exitX=1;exitY=0.5;exitDx=0;exitDy=0;entryX=0;entryY=0.5;entryDx=0;entryDy=0;" parent="1" source="bI5IiFM-uWExRWGYlGxG-42" target="bI5IiFM-uWExRWGYlGxG-56" edge="1">
          <mxGeometry relative="1" as="geometry">
            <mxPoint x="650" y="550" as="sourcePoint" />
            <mxPoint x="810" y="550" as="targetPoint" />
          </mxGeometry>
        </mxCell>
        <mxCell id="17qj9s2xw-vzqf6WSjzT-1" value="" style="endArrow=none;html=1;rounded=0;exitX=1;exitY=0.5;exitDx=0;exitDy=0;entryX=0;entryY=0.5;entryDx=0;entryDy=0;" parent="1" source="bI5IiFM-uWExRWGYlGxG-1" target="bI5IiFM-uWExRWGYlGxG-42" edge="1">
          <mxGeometry relative="1" as="geometry">
            <mxPoint x="430" y="650" as="sourcePoint" />
            <mxPoint x="590" y="650" as="targetPoint" />
          </mxGeometry>
        </mxCell>
        <mxCell id="17qj9s2xw-vzqf6WSjzT-2" value="N" style="resizable=0;html=1;whiteSpace=wrap;align=right;verticalAlign=bottom;" parent="17qj9s2xw-vzqf6WSjzT-1" connectable="0" vertex="1">
          <mxGeometry x="1" relative="1" as="geometry" />
        </mxCell>
        <mxCell id="17qj9s2xw-vzqf6WSjzT-3" value="1" style="text;html=1;align=center;verticalAlign=middle;resizable=0;points=[];autosize=1;strokeColor=none;fillColor=none;" parent="1" vertex="1">
          <mxGeometry x="285" y="398" width="30" height="30" as="geometry" />
        </mxCell>
        <mxCell id="17qj9s2xw-vzqf6WSjzT-4" value="order_details" style="shape=associativeEntity;whiteSpace=wrap;html=1;align=center;" parent="1" vertex="1">
          <mxGeometry x="560" y="680" width="110" height="40" as="geometry" />
        </mxCell>
        <mxCell id="17qj9s2xw-vzqf6WSjzT-5" value="" style="endArrow=none;html=1;rounded=0;exitX=0.5;exitY=1;exitDx=0;exitDy=0;entryX=0.5;entryY=0;entryDx=0;entryDy=0;" parent="1" source="bI5IiFM-uWExRWGYlGxG-42" target="17qj9s2xw-vzqf6WSjzT-4" edge="1">
          <mxGeometry relative="1" as="geometry">
            <mxPoint x="680" y="720" as="sourcePoint" />
            <mxPoint x="840" y="720" as="targetPoint" />
          </mxGeometry>
        </mxCell>
        <mxCell id="17qj9s2xw-vzqf6WSjzT-6" value="N" style="resizable=0;html=1;whiteSpace=wrap;align=right;verticalAlign=bottom;" parent="17qj9s2xw-vzqf6WSjzT-5" connectable="0" vertex="1">
          <mxGeometry x="1" relative="1" as="geometry" />
        </mxCell>
        <mxCell id="17qj9s2xw-vzqf6WSjzT-7" value="1" style="text;html=1;align=center;verticalAlign=middle;resizable=0;points=[];autosize=1;strokeColor=none;fillColor=none;" parent="1" vertex="1">
          <mxGeometry x="595" y="440" width="30" height="30" as="geometry" />
        </mxCell>
        <mxCell id="17qj9s2xw-vzqf6WSjzT-9" value="" style="endArrow=none;html=1;rounded=0;exitX=0.5;exitY=0;exitDx=0;exitDy=0;entryX=0.5;entryY=1;entryDx=0;entryDy=0;" parent="1" source="17qj9s2xw-vzqf6WSjzT-30" target="17qj9s2xw-vzqf6WSjzT-4" edge="1">
          <mxGeometry relative="1" as="geometry">
            <mxPoint x="615" y="770" as="sourcePoint" />
            <mxPoint x="600" y="630" as="targetPoint" />
          </mxGeometry>
        </mxCell>
        <mxCell id="17qj9s2xw-vzqf6WSjzT-11" value="" style="endArrow=none;html=1;rounded=0;exitX=0;exitY=1;exitDx=0;exitDy=0;entryX=1;entryY=0.5;entryDx=0;entryDy=0;" parent="1" source="17qj9s2xw-vzqf6WSjzT-29" target="17qj9s2xw-vzqf6WSjzT-4" edge="1">
          <mxGeometry relative="1" as="geometry">
            <mxPoint x="720.0000000000061" y="678.0000000000001" as="sourcePoint" />
            <mxPoint x="570" y="630" as="targetPoint" />
          </mxGeometry>
        </mxCell>
        <mxCell id="17qj9s2xw-vzqf6WSjzT-14" value="quantity_ordered" style="ellipse;whiteSpace=wrap;html=1;align=center;" parent="1" vertex="1">
          <mxGeometry x="720" y="720" width="100" height="40" as="geometry" />
        </mxCell>
        <mxCell id="17qj9s2xw-vzqf6WSjzT-15" value="" style="endArrow=none;html=1;rounded=0;exitX=1;exitY=0.5;exitDx=0;exitDy=0;entryX=0;entryY=0.5;entryDx=0;entryDy=0;" parent="1" source="17qj9s2xw-vzqf6WSjzT-4" target="17qj9s2xw-vzqf6WSjzT-14" edge="1">
          <mxGeometry relative="1" as="geometry">
            <mxPoint x="530" y="840" as="sourcePoint" />
            <mxPoint x="690" y="840" as="targetPoint" />
          </mxGeometry>
        </mxCell>
        <mxCell id="17qj9s2xw-vzqf6WSjzT-16" value="shipped_date" style="ellipse;whiteSpace=wrap;html=1;align=center;" parent="1" vertex="1">
          <mxGeometry x="730" y="350" width="100" height="40" as="geometry" />
        </mxCell>
        <mxCell id="17qj9s2xw-vzqf6WSjzT-17" value="status" style="ellipse;whiteSpace=wrap;html=1;align=center;" parent="1" vertex="1">
          <mxGeometry x="460" y="330" width="100" height="40" as="geometry" />
        </mxCell>
        <mxCell id="17qj9s2xw-vzqf6WSjzT-18" value="" style="endArrow=none;html=1;rounded=0;exitX=1;exitY=1;exitDx=0;exitDy=0;entryX=0.25;entryY=0;entryDx=0;entryDy=0;" parent="1" source="17qj9s2xw-vzqf6WSjzT-17" target="bI5IiFM-uWExRWGYlGxG-42" edge="1">
          <mxGeometry relative="1" as="geometry">
            <mxPoint x="430" y="450" as="sourcePoint" />
            <mxPoint x="590" y="450" as="targetPoint" />
          </mxGeometry>
        </mxCell>
        <mxCell id="17qj9s2xw-vzqf6WSjzT-19" value="received_date" style="ellipse;whiteSpace=wrap;html=1;align=center;" parent="1" vertex="1">
          <mxGeometry x="740" y="500" width="100" height="40" as="geometry" />
        </mxCell>
        <mxCell id="17qj9s2xw-vzqf6WSjzT-21" value="" style="endArrow=none;html=1;rounded=0;exitX=1;exitY=0.5;exitDx=0;exitDy=0;entryX=0;entryY=0;entryDx=0;entryDy=0;" parent="1" source="bI5IiFM-uWExRWGYlGxG-42" target="17qj9s2xw-vzqf6WSjzT-19" edge="1">
          <mxGeometry relative="1" as="geometry">
            <mxPoint x="560" y="690" as="sourcePoint" />
            <mxPoint x="720" y="690" as="targetPoint" />
          </mxGeometry>
        </mxCell>
        <mxCell id="17qj9s2xw-vzqf6WSjzT-22" value="" style="endArrow=none;html=1;rounded=0;exitX=1;exitY=0.5;exitDx=0;exitDy=0;entryX=0;entryY=0.5;entryDx=0;entryDy=0;" parent="1" source="bI5IiFM-uWExRWGYlGxG-14" target="17qj9s2xw-vzqf6WSjzT-4" edge="1">
          <mxGeometry relative="1" as="geometry">
            <mxPoint x="450" y="680" as="sourcePoint" />
            <mxPoint x="610" y="680" as="targetPoint" />
          </mxGeometry>
        </mxCell>
        <mxCell id="17qj9s2xw-vzqf6WSjzT-23" value="N" style="resizable=0;html=1;whiteSpace=wrap;align=right;verticalAlign=bottom;" parent="17qj9s2xw-vzqf6WSjzT-22" connectable="0" vertex="1">
          <mxGeometry x="1" relative="1" as="geometry" />
        </mxCell>
        <mxCell id="17qj9s2xw-vzqf6WSjzT-24" value="1" style="text;html=1;align=center;verticalAlign=middle;resizable=0;points=[];autosize=1;strokeColor=none;fillColor=none;" parent="1" vertex="1">
          <mxGeometry x="275" y="668" width="30" height="30" as="geometry" />
        </mxCell>
        <mxCell id="17qj9s2xw-vzqf6WSjzT-28" value="merch_id" style="ellipse;whiteSpace=wrap;html=1;align=center;fontStyle=4;" parent="1" vertex="1">
          <mxGeometry x="325" y="540" width="100" height="40" as="geometry" />
        </mxCell>
        <mxCell id="17qj9s2xw-vzqf6WSjzT-29" value="order_id" style="ellipse;whiteSpace=wrap;html=1;align=center;fontStyle=4;" parent="1" vertex="1">
          <mxGeometry x="710" y="640" width="100" height="40" as="geometry" />
        </mxCell>
        <mxCell id="17qj9s2xw-vzqf6WSjzT-30" value="merch_id" style="ellipse;whiteSpace=wrap;html=1;align=center;fontStyle=4;" parent="1" vertex="1">
          <mxGeometry x="565" y="750" width="100" height="40" as="geometry" />
        </mxCell>
        <mxCell id="17qj9s2xw-vzqf6WSjzT-32" value="image" style="ellipse;whiteSpace=wrap;html=1;align=center;" parent="1" vertex="1">
          <mxGeometry x="215" y="810" width="100" height="40" as="geometry" />
        </mxCell>
        <mxCell id="17qj9s2xw-vzqf6WSjzT-33" value="" style="endArrow=none;html=1;rounded=0;exitX=0.5;exitY=0;exitDx=0;exitDy=0;entryX=0.5;entryY=1;entryDx=0;entryDy=0;" parent="1" source="17qj9s2xw-vzqf6WSjzT-32" target="bI5IiFM-uWExRWGYlGxG-14" edge="1">
          <mxGeometry relative="1" as="geometry">
            <mxPoint x="300" y="890" as="sourcePoint" />
            <mxPoint x="460" y="890" as="targetPoint" />
          </mxGeometry>
        </mxCell>
        <mxCell id="sn3yY9nD2WqreJ1LB6Iz-1" value="payments" style="whiteSpace=wrap;html=1;align=center;" parent="1" vertex="1">
          <mxGeometry x="560" y="240" width="110" height="40" as="geometry" />
        </mxCell>
        <mxCell id="sn3yY9nD2WqreJ1LB6Iz-2" value="" style="endArrow=none;html=1;rounded=0;exitX=0.5;exitY=0;exitDx=0;exitDy=0;entryX=0.5;entryY=1;entryDx=0;entryDy=0;" parent="1" source="bI5IiFM-uWExRWGYlGxG-42" target="sn3yY9nD2WqreJ1LB6Iz-1" edge="1">
          <mxGeometry relative="1" as="geometry">
            <mxPoint x="600" y="310" as="sourcePoint" />
            <mxPoint x="760" y="310" as="targetPoint" />
          </mxGeometry>
        </mxCell>
        <mxCell id="sn3yY9nD2WqreJ1LB6Iz-3" value="1" style="resizable=0;html=1;whiteSpace=wrap;align=right;verticalAlign=bottom;" parent="sn3yY9nD2WqreJ1LB6Iz-2" connectable="0" vertex="1">
          <mxGeometry x="1" relative="1" as="geometry" />
        </mxCell>
        <mxCell id="sn3yY9nD2WqreJ1LB6Iz-4" value="1" style="edgeLabel;html=1;align=center;verticalAlign=middle;resizable=0;points=[];" parent="sn3yY9nD2WqreJ1LB6Iz-2" vertex="1" connectable="0">
          <mxGeometry x="-0.8544" y="4" relative="1" as="geometry">
            <mxPoint as="offset" />
          </mxGeometry>
        </mxCell>
        <mxCell id="sn3yY9nD2WqreJ1LB6Iz-5" value="id" style="ellipse;whiteSpace=wrap;html=1;align=center;fontStyle=4;" parent="1" vertex="1">
          <mxGeometry x="470" y="160" width="100" height="40" as="geometry" />
        </mxCell>
        <mxCell id="sn3yY9nD2WqreJ1LB6Iz-6" value="" style="endArrow=none;html=1;rounded=0;exitX=1;exitY=1;exitDx=0;exitDy=0;entryX=0.5;entryY=0;entryDx=0;entryDy=0;" parent="1" source="sn3yY9nD2WqreJ1LB6Iz-5" target="sn3yY9nD2WqreJ1LB6Iz-1" edge="1">
          <mxGeometry relative="1" as="geometry">
            <mxPoint x="610" y="150" as="sourcePoint" />
            <mxPoint x="770" y="150" as="targetPoint" />
          </mxGeometry>
        </mxCell>
        <mxCell id="sn3yY9nD2WqreJ1LB6Iz-7" value="order_id" style="ellipse;whiteSpace=wrap;html=1;align=center;" parent="1" vertex="1">
          <mxGeometry x="525" y="120" width="100" height="40" as="geometry" />
        </mxCell>
        <mxCell id="sn3yY9nD2WqreJ1LB6Iz-9" value="" style="endArrow=none;html=1;rounded=0;exitX=0.5;exitY=1;exitDx=0;exitDy=0;entryX=0.5;entryY=0;entryDx=0;entryDy=0;" parent="1" source="sn3yY9nD2WqreJ1LB6Iz-7" target="sn3yY9nD2WqreJ1LB6Iz-1" edge="1">
          <mxGeometry relative="1" as="geometry">
            <mxPoint x="710" y="170" as="sourcePoint" />
            <mxPoint x="870" y="170" as="targetPoint" />
          </mxGeometry>
        </mxCell>
        <mxCell id="sn3yY9nD2WqreJ1LB6Iz-10" value="paid_date" style="ellipse;whiteSpace=wrap;html=1;align=center;" parent="1" vertex="1">
          <mxGeometry x="630" y="120" width="100" height="40" as="geometry" />
        </mxCell>
        <mxCell id="sn3yY9nD2WqreJ1LB6Iz-11" value="" style="endArrow=none;html=1;rounded=0;exitX=0.5;exitY=1;exitDx=0;exitDy=0;entryX=0.5;entryY=0;entryDx=0;entryDy=0;" parent="1" source="sn3yY9nD2WqreJ1LB6Iz-10" target="sn3yY9nD2WqreJ1LB6Iz-1" edge="1">
          <mxGeometry relative="1" as="geometry">
            <mxPoint x="710" y="210" as="sourcePoint" />
            <mxPoint x="870" y="210" as="targetPoint" />
          </mxGeometry>
        </mxCell>
        <mxCell id="sn3yY9nD2WqreJ1LB6Iz-12" value="amount" style="ellipse;whiteSpace=wrap;html=1;align=center;" parent="1" vertex="1">
          <mxGeometry x="680" y="160" width="100" height="40" as="geometry" />
        </mxCell>
        <mxCell id="sn3yY9nD2WqreJ1LB6Iz-13" value="" style="endArrow=none;html=1;rounded=0;exitX=0;exitY=1;exitDx=0;exitDy=0;entryX=0.5;entryY=0;entryDx=0;entryDy=0;" parent="1" source="sn3yY9nD2WqreJ1LB6Iz-12" target="sn3yY9nD2WqreJ1LB6Iz-1" edge="1">
          <mxGeometry relative="1" as="geometry">
            <mxPoint x="710" y="240" as="sourcePoint" />
            <mxPoint x="870" y="240" as="targetPoint" />
          </mxGeometry>
        </mxCell>
        <mxCell id="tloL1E9exMjWBuXD2EUG-1" value="address" style="ellipse;whiteSpace=wrap;html=1;align=center;" vertex="1" parent="1">
          <mxGeometry x="625" y="310" width="100" height="40" as="geometry" />
        </mxCell>
        <mxCell id="tloL1E9exMjWBuXD2EUG-2" value="" style="endArrow=none;html=1;rounded=0;exitX=0.5;exitY=1;exitDx=0;exitDy=0;entryX=0.75;entryY=0;entryDx=0;entryDy=0;" edge="1" parent="1" source="tloL1E9exMjWBuXD2EUG-1" target="bI5IiFM-uWExRWGYlGxG-42">
          <mxGeometry width="50" height="50" relative="1" as="geometry">
            <mxPoint x="480" y="570" as="sourcePoint" />
            <mxPoint x="530" y="520" as="targetPoint" />
          </mxGeometry>
        </mxCell>
      </root>
    </mxGraphModel>
  </diagram>
</mxfile>
